<svg width="155" height="49" viewBox="0 0 155 49" fill="none" xmlns="http://www.w3.org/2000/svg">
<path d="M28.628 10.544C28.628 12.584 28.1 14.456 27.044 16.16C25.988 17.864 24.452 19.256 22.436 20.336C20.42 21.416 18.02 22.052 15.236 22.244L13.688 30.92C13.088 34.256 11.456 35.924 8.792 35.924C7.328 35.924 5.972 35.492 4.724 34.628C3.5 33.764 2.516 32.444 1.772 30.668C1.028 28.892 0.656 26.708 0.656 24.116C0.656 19.244 1.436 15.116 2.996 11.732C4.58 8.324 6.692 5.78 9.332 4.1C11.996 2.396 14.924 1.544 18.116 1.544C20.372 1.544 22.28 1.94 23.84 2.732C25.424 3.524 26.612 4.604 27.404 5.972C28.22 7.316 28.628 8.84 28.628 10.544ZM15.884 18.536C20.804 17.912 23.264 15.356 23.264 10.868C23.264 9.284 22.736 8 21.68 7.016C20.648 6.008 19.04 5.504 16.856 5.504C14.384 5.504 12.224 6.284 10.376 7.844C8.552 9.404 7.136 11.576 6.128 14.36C5.144 17.12 4.652 20.276 4.652 23.828C4.652 25.316 4.796 26.636 5.084 27.788C5.396 28.94 5.78 29.84 6.236 30.488C6.716 31.112 7.172 31.424 7.604 31.424C8.204 31.424 8.66 30.596 8.972 28.94L10.16 22.136C9.224 21.992 8.816 21.932 8.936 21.956C8.216 21.836 7.748 21.62 7.532 21.308C7.316 20.972 7.208 20.552 7.208 20.048C7.208 19.52 7.352 19.1 7.64 18.788C7.952 18.476 8.372 18.32 8.9 18.32C9.14 18.32 9.32 18.332 9.44 18.356C10.016 18.452 10.46 18.512 10.772 18.536C11.084 16.664 11.528 14.156 12.104 11.012C12.248 10.196 12.572 9.62 13.076 9.284C13.604 8.924 14.216 8.744 14.912 8.744C15.704 8.744 16.268 8.9 16.604 9.212C16.964 9.5 17.144 9.968 17.144 10.616C17.144 11 17.12 11.312 17.072 11.552L15.884 18.536ZM32.2682 12.848C31.2602 12.848 30.5042 12.62 30.0002 12.164C29.4962 11.684 29.2442 11.024 29.2442 10.184C29.2442 9.344 29.5682 8.648 30.2162 8.096C30.8882 7.52 31.7162 7.232 32.7002 7.232C33.5882 7.232 34.3082 7.448 34.8602 7.88C35.4122 8.312 35.6882 8.924 35.6882 9.716C35.6882 10.676 35.3762 11.444 34.7522 12.02C34.1282 12.572 33.3002 12.848 32.2682 12.848ZM31.9802 32.18C30.4202 32.18 29.2802 31.628 28.5602 30.524C27.8642 29.42 27.5162 27.956 27.5162 26.132C27.5162 25.052 27.6482 23.672 27.9122 21.992C28.2002 20.288 28.5602 18.704 28.9922 17.24C29.2082 16.472 29.4962 15.944 29.8562 15.656C30.2162 15.368 30.7922 15.224 31.5842 15.224C32.8082 15.224 33.4202 15.632 33.4202 16.448C33.4202 17.048 33.1922 18.44 32.7362 20.624C32.1602 23.264 31.8722 25.052 31.8722 25.988C31.8722 26.708 31.9682 27.26 32.1602 27.644C32.3522 28.028 32.6762 28.22 33.1322 28.22C33.5642 28.22 34.1042 27.92 34.7522 27.32C35.4002 26.72 36.2642 25.772 37.3442 24.476C37.6322 24.14 37.9562 23.972 38.3162 23.972C38.6282 23.972 38.8682 24.116 39.0362 24.404C39.2282 24.692 39.3242 25.088 39.3242 25.592C39.3242 26.552 39.0962 27.296 38.6402 27.824C36.2642 30.728 34.0442 32.18 31.9802 32.18ZM43.2876 32.18C40.9356 32.18 39.0996 31.52 37.7796 30.2C36.4836 28.856 35.8356 27.092 35.8356 24.908C35.8356 22.964 36.2196 21.26 36.9876 19.796C37.7556 18.332 38.7516 17.204 39.9756 16.412C41.1996 15.62 42.4836 15.224 43.8276 15.224C45.1476 15.224 46.1676 15.62 46.8876 16.412C47.6316 17.18 48.0036 18.176 48.0036 19.4C48.0036 20.408 47.7756 21.26 47.3196 21.956C46.8876 22.652 46.3116 23 45.5916 23C45.1356 23 44.7636 22.892 44.4756 22.676C44.2116 22.46 44.0796 22.16 44.0796 21.776C44.0796 21.608 44.1036 21.416 44.1516 21.2C44.1996 20.984 44.2356 20.828 44.2596 20.732C44.3796 20.372 44.4396 20.036 44.4396 19.724C44.4396 19.412 44.3556 19.172 44.1876 19.004C44.0436 18.836 43.8276 18.752 43.5396 18.752C42.9876 18.752 42.4716 19.004 41.9916 19.508C41.5116 19.988 41.1276 20.648 40.8396 21.488C40.5516 22.328 40.4076 23.252 40.4076 24.26C40.4076 27.044 41.6196 28.436 44.0436 28.436C45.0276 28.436 46.0836 28.112 47.2116 27.464C48.3636 26.792 49.4916 25.796 50.5956 24.476C50.8836 24.14 51.2076 23.972 51.5676 23.972C51.8796 23.972 52.1196 24.116 52.2876 24.404C52.4796 24.692 52.5756 25.088 52.5756 25.592C52.5756 26.504 52.3476 27.248 51.8916 27.824C50.7636 29.216 49.4076 30.296 47.8236 31.064C46.2636 31.808 44.7516 32.18 43.2876 32.18ZM65.8973 23.972C66.2093 23.972 66.4493 24.116 66.6173 24.404C66.8093 24.692 66.9053 25.088 66.9053 25.592C66.9053 26.552 66.6773 27.296 66.2213 27.824C65.1893 29.096 64.0613 30.14 62.8373 30.956C61.6133 31.772 60.2093 32.18 58.6253 32.18C53.7293 32.18 51.2813 28.736 51.2813 21.848C51.2813 20.792 51.3173 19.724 51.3893 18.644H49.9853C49.2653 18.644 48.7733 18.512 48.5093 18.248C48.2693 17.984 48.1493 17.564 48.1493 16.988C48.1493 15.644 48.6893 14.972 49.7693 14.972H51.8213C52.2293 12.332 52.8533 9.92 53.6933 7.736C54.5333 5.552 55.5413 3.812 56.7173 2.516C57.9173 1.22 59.2013 0.571999 60.5693 0.571999C61.5773 0.571999 62.3693 1.016 62.9453 1.904C63.5213 2.792 63.8093 3.908 63.8093 5.252C63.8093 8.972 62.2493 12.212 59.1293 14.972H63.1613C63.5453 14.972 63.8213 15.056 63.9893 15.224C64.1573 15.392 64.2413 15.704 64.2413 16.16C64.2413 17.816 62.8853 18.644 60.1733 18.644H55.7813C55.7333 19.844 55.7093 20.78 55.7093 21.452C55.7093 23.948 55.9973 25.7 56.5733 26.708C57.1733 27.716 58.1093 28.22 59.3813 28.22C60.4133 28.22 61.3253 27.908 62.1173 27.284C62.9093 26.66 63.8453 25.724 64.9253 24.476C65.2133 24.14 65.5373 23.972 65.8973 23.972ZM59.5973 4.028C59.2373 4.028 58.8293 4.484 58.3733 5.396C57.9413 6.284 57.5213 7.532 57.1133 9.14C56.7293 10.724 56.4053 12.488 56.1413 14.432C57.5573 13.208 58.6133 11.84 59.3093 10.328C60.0293 8.792 60.3893 7.4 60.3893 6.152C60.3893 4.736 60.1253 4.028 59.5973 4.028ZM82.3341 20.948C82.6461 20.948 82.8861 21.104 83.0541 21.416C83.2221 21.728 83.3061 22.124 83.3061 22.604C83.3061 23.756 82.9581 24.44 82.2621 24.656C80.8221 25.16 79.2381 25.448 77.5101 25.52C77.0541 27.536 76.1541 29.156 74.8101 30.38C73.4661 31.58 71.9421 32.18 70.2381 32.18C68.7981 32.18 67.5621 31.832 66.5301 31.136C65.5221 30.44 64.7541 29.516 64.2261 28.364C63.6981 27.212 63.4341 25.964 63.4341 24.62C63.4341 22.796 63.7821 21.176 64.4781 19.76C65.1741 18.32 66.1341 17.204 67.3581 16.412C68.5821 15.596 69.9381 15.188 71.4261 15.188C73.2501 15.188 74.7141 15.824 75.8181 17.096C76.9461 18.344 77.6061 19.892 77.7981 21.74C78.9261 21.668 80.2701 21.428 81.8301 21.02C82.0221 20.972 82.1901 20.948 82.3341 20.948ZM70.5261 28.364C71.2941 28.364 71.9541 28.052 72.5061 27.428C73.0821 26.804 73.4661 25.904 73.6581 24.728C72.9141 24.224 72.3381 23.564 71.9301 22.748C71.5461 21.932 71.3541 21.068 71.3541 20.156C71.3541 19.772 71.3901 19.388 71.4621 19.004H71.2821C70.3221 19.004 69.5181 19.472 68.8701 20.408C68.2461 21.32 67.9341 22.616 67.9341 24.296C67.9341 25.616 68.1861 26.624 68.6901 27.32C69.2181 28.016 69.8301 28.364 70.5261 28.364ZM98.6483 24.044C98.9603 24.044 99.2003 24.2 99.3683 24.512C99.5603 24.8 99.6563 25.172 99.6563 25.628C99.6563 26.18 99.5723 26.612 99.4043 26.924C99.2363 27.236 98.9723 27.512 98.6123 27.752C96.5483 29.144 95.0363 30.176 94.0763 30.848L91.7723 32.396C90.8603 37.364 89.6603 41.264 88.1723 44.096C86.7083 46.952 84.8363 48.38 82.5563 48.38C81.3323 48.38 80.3363 47.996 79.5683 47.228C78.8003 46.484 78.4163 45.5 78.4163 44.276C78.4163 42.572 79.0883 40.736 80.4323 38.768C81.7763 36.824 84.2963 34.424 87.9923 31.568L88.2083 30.164C87.8003 30.812 87.2603 31.316 86.5883 31.676C85.9403 32.012 85.2923 32.18 84.6443 32.18C83.1563 32.18 81.9683 31.64 81.0803 30.56C80.1923 29.48 79.7483 28.064 79.7483 26.312C79.7483 24.392 80.1923 22.58 81.0803 20.876C81.9683 19.148 83.1443 17.768 84.6083 16.736C86.0963 15.68 87.6683 15.152 89.3243 15.152C89.8523 15.152 90.2003 15.26 90.3683 15.476C90.5603 15.668 90.7163 16.028 90.8363 16.556C91.2923 16.46 91.8203 16.412 92.4203 16.412C93.0203 16.412 93.4403 16.508 93.6803 16.7C93.9443 16.868 94.0763 17.216 94.0763 17.744C94.0763 18.032 94.0643 18.26 94.0403 18.428C93.9443 19.172 93.6443 21.056 93.1403 24.08C93.0443 24.656 92.9363 25.292 92.8163 25.988C92.7203 26.66 92.6123 27.38 92.4923 28.148C94.3403 26.708 96.1163 25.436 97.8203 24.332C98.1323 24.14 98.4083 24.044 98.6483 24.044ZM85.9403 28.544C86.4923 28.544 87.0203 28.208 87.5243 27.536C88.0283 26.864 88.3883 25.904 88.6043 24.656L89.7563 18.5C88.7723 18.524 87.8603 18.908 87.0203 19.652C86.1803 20.372 85.5083 21.332 85.0043 22.532C84.5003 23.732 84.2483 25.004 84.2483 26.348C84.2483 27.092 84.3923 27.644 84.6803 28.004C84.9923 28.364 85.4123 28.544 85.9403 28.544ZM82.9523 44.888C83.5523 44.888 84.2243 44.168 84.9683 42.728C85.7363 41.288 86.4683 38.996 87.1643 35.852C85.3163 37.436 83.9843 38.864 83.1683 40.136C82.3523 41.408 81.9443 42.524 81.9443 43.484C81.9443 43.892 82.0163 44.228 82.1603 44.492C82.3283 44.756 82.5923 44.888 82.9523 44.888ZM99.6121 32.18C98.7001 32.18 98.0521 31.7 97.6681 30.74C97.3081 29.78 97.1281 28.244 97.1281 26.132C97.1281 23.012 97.5721 20.048 98.4601 17.24C98.6761 16.544 99.0241 16.04 99.5041 15.728C100.008 15.392 100.704 15.224 101.592 15.224C102.072 15.224 102.408 15.284 102.6 15.404C102.792 15.524 102.888 15.752 102.888 16.088C102.888 16.472 102.708 17.336 102.348 18.68C102.108 19.64 101.916 20.48 101.772 21.2C101.628 21.92 101.508 22.808 101.412 23.864C102.204 21.8 103.092 20.12 104.076 18.824C105.06 17.528 106.02 16.604 106.956 16.052C107.916 15.5 108.792 15.224 109.584 15.224C111.144 15.224 111.924 16.004 111.924 17.564C111.924 17.876 111.816 18.632 111.6 19.832C111.408 20.792 111.312 21.392 111.312 21.632C111.312 22.472 111.612 22.892 112.212 22.892C112.884 22.892 113.748 22.364 114.804 21.308C115.116 20.996 115.44 20.84 115.776 20.84C116.088 20.84 116.328 20.984 116.496 21.272C116.688 21.536 116.784 21.896 116.784 22.352C116.784 23.24 116.544 23.936 116.064 24.44C115.392 25.136 114.6 25.736 113.688 26.24C112.8 26.72 111.852 26.96 110.844 26.96C109.572 26.96 108.6 26.636 107.928 25.988C107.28 25.34 106.956 24.464 106.956 23.36C106.956 23 106.992 22.64 107.064 22.28C107.112 21.8 107.136 21.476 107.136 21.308C107.136 20.924 107.004 20.732 106.74 20.732C106.38 20.732 105.9 21.14 105.3 21.956C104.724 22.748 104.148 23.804 103.572 25.124C102.996 26.444 102.528 27.836 102.168 29.3C101.904 30.428 101.592 31.196 101.232 31.604C100.896 31.988 100.356 32.18 99.6121 32.18ZM117.867 32.18C116.379 32.18 115.191 31.64 114.303 30.56C113.415 29.48 112.971 28.064 112.971 26.312C112.971 24.392 113.415 22.58 114.303 20.876C115.191 19.148 116.367 17.768 117.831 16.736C119.319 15.68 120.891 15.152 122.547 15.152C123.075 15.152 123.423 15.26 123.591 15.476C123.783 15.668 123.939 16.028 124.059 16.556C124.563 16.46 125.091 16.412 125.643 16.412C126.819 16.412 127.407 16.832 127.407 17.672C127.407 18.176 127.227 19.376 126.867 21.272C126.315 24.032 126.039 25.952 126.039 27.032C126.039 27.392 126.123 27.68 126.291 27.896C126.483 28.112 126.723 28.22 127.011 28.22C127.467 28.22 128.019 27.932 128.667 27.356C129.315 26.756 130.191 25.796 131.295 24.476C131.583 24.14 131.907 23.972 132.267 23.972C132.579 23.972 132.819 24.116 132.987 24.404C133.179 24.692 133.275 25.088 133.275 25.592C133.275 26.552 133.047 27.296 132.591 27.824C131.607 29.048 130.563 30.08 129.459 30.92C128.355 31.76 127.287 32.18 126.255 32.18C125.463 32.18 124.731 31.916 124.059 31.388C123.411 30.836 122.919 30.092 122.583 29.156C121.335 31.172 119.763 32.18 117.867 32.18ZM119.163 28.544C119.691 28.544 120.195 28.232 120.675 27.608C121.155 26.984 121.503 26.156 121.719 25.124L123.051 18.5C122.043 18.524 121.107 18.908 120.243 19.652C119.403 20.372 118.731 21.332 118.227 22.532C117.723 23.732 117.471 25.004 117.471 26.348C117.471 27.092 117.615 27.644 117.903 28.004C118.215 28.364 118.635 28.544 119.163 28.544ZM132.905 32.18C131.993 32.18 131.345 31.7 130.961 30.74C130.601 29.78 130.421 28.244 130.421 26.132C130.421 23.012 130.865 20.048 131.753 17.24C131.969 16.544 132.317 16.04 132.797 15.728C133.301 15.392 133.997 15.224 134.885 15.224C135.365 15.224 135.701 15.284 135.893 15.404C136.085 15.524 136.181 15.752 136.181 16.088C136.181 16.472 136.001 17.336 135.641 18.68C135.401 19.64 135.209 20.48 135.065 21.2C134.921 21.896 134.801 22.772 134.705 23.828C135.353 21.956 136.121 20.372 137.009 19.076C137.921 17.78 138.845 16.82 139.781 16.196C140.741 15.548 141.641 15.224 142.481 15.224C143.321 15.224 143.909 15.416 144.245 15.8C144.605 16.184 144.785 16.772 144.785 17.564C144.785 18.332 144.557 19.724 144.101 21.74C143.909 22.604 143.777 23.252 143.705 23.684C144.497 21.668 145.373 20.024 146.333 18.752C147.317 17.48 148.277 16.58 149.213 16.052C150.149 15.5 151.013 15.224 151.805 15.224C152.573 15.224 153.149 15.428 153.533 15.836C153.941 16.22 154.145 16.796 154.145 17.564C154.145 18.188 154.013 19.364 153.749 21.092C153.509 22.556 153.317 23.948 153.173 25.268C153.029 26.564 152.957 28.016 152.957 29.624C152.957 30.536 152.765 31.196 152.381 31.604C152.021 31.988 151.421 32.18 150.581 32.18C149.789 32.18 149.213 31.976 148.853 31.568C148.493 31.16 148.313 30.548 148.313 29.732C148.313 28.772 148.481 27.188 148.817 24.98C149.105 23.06 149.249 21.836 149.249 21.308C149.249 20.924 149.117 20.732 148.853 20.732C148.541 20.732 148.097 21.14 147.521 21.956C146.945 22.748 146.369 23.804 145.793 25.124C145.217 26.444 144.749 27.836 144.389 29.3C144.125 30.452 143.813 31.22 143.453 31.604C143.117 31.988 142.565 32.18 141.797 32.18C141.005 32.18 140.405 31.808 139.997 31.064C139.613 30.296 139.421 29.372 139.421 28.292C139.421 27.38 139.541 26.06 139.781 24.332C139.973 22.796 140.069 21.788 140.069 21.308C140.069 20.924 139.937 20.732 139.673 20.732C139.313 20.732 138.857 21.164 138.305 22.028C137.753 22.892 137.213 23.996 136.685 25.34C136.181 26.684 135.773 28.004 135.461 29.3C135.197 30.428 134.885 31.196 134.525 31.604C134.189 31.988 133.649 32.18 132.905 32.18Z" fill="white"/>
</svg>
